<svg aria-hidden="true" style="position: absolute; width: 0; height: 0; overflow: hidden;" version="1.1" xmlns="http://www.w3.org/2000/svg" xmlns:xlink="http://www.w3.org/1999/xlink">
<defs>
<symbol id="icon-arrow" viewBox="0 0 32 32">
<path stroke-linejoin="round" stroke-linecap="round" stroke-miterlimit="4" stroke-width="2.2857" d="M18 23.429l10-10-10-10M28 13.429h-24"></path>
</symbol>
<symbol id="icon-console" viewBox="0 0 32 32">
<path d="M14.945 7.812h2.109c0-0.331 0.002-0.655 0.005-0.974 0.005-0.626 0.009-1.234-0.005-1.848-0.021-0.554-0.469-0.958-1.001-0.99-0.533-0.021-1.065 0.351-1.097 0.884-0.030 0.677-0.023 1.354-0.016 2.038 0.003 0.295 0.006 0.592 0.006 0.89zM0.618 18.207c-0.331 1.103-0.662 2.204-0.618 3.382 0 0.071-0.001 0.142-0.002 0.213-0.002 0.142-0.005 0.284 0.002 0.426 0.234 3.705 3.76 6.101 7.286 4.93 1.566-0.522 2.684-1.576 3.334-3.088 0.597-1.373 1.555-2.385 2.961-2.885 1.427-0.511 2.908-0.5 4.357-0.149 1.587 0.394 2.61 1.469 3.27 2.949 1.097 2.481 3.846 3.897 6.37 3.311 3.036-0.703 5.039-3.886 4.24-6.899-0.692-2.641-1.438-5.26-2.269-7.858-1.3-4.067-6.53-5.696-9.715-2.779-0.128 0.117-0.352 0.192-0.522 0.192-2.237 0.011-4.474 0.011-6.711 0-0.192 0-0.426-0.075-0.565-0.202-3.27-2.96-8.618-1.224-9.832 3.003-0.115 0.391-0.23 0.783-0.345 1.174-0.346 1.174-0.691 2.348-1.019 3.522-0.072 0.254-0.147 0.507-0.223 0.76zM22.133 16.282c0.119-0.115 0.249-0.241 0.397-0.389-0.113-0.101-0.222-0.192-0.325-0.278-0.158-0.132-0.303-0.253-0.432-0.382-0.543-0.543-0.575-1.182-0.117-1.64s1.097-0.405 1.64 0.138c0.177 0.177 0.347 0.361 0.553 0.582 0.054 0.059 0.111 0.12 0.171 0.184 0.085-0.095 0.166-0.187 0.244-0.275 0.186-0.211 0.357-0.407 0.544-0.587 0.479-0.458 1.097-0.468 1.523-0.053 0.447 0.437 0.437 1.075-0.032 1.565-0.179 0.187-0.375 0.356-0.608 0.558-0.087 0.075-0.178 0.154-0.276 0.241 0.133 0.125 0.26 0.235 0.38 0.341 0.177 0.155 0.341 0.299 0.494 0.458 0.479 0.5 0.479 1.139 0.043 1.565-0.447 0.437-1.065 0.415-1.555-0.075-0.159-0.166-0.304-0.345-0.466-0.543-0.087-0.107-0.179-0.221-0.28-0.34-0.125 0.133-0.235 0.253-0.336 0.364-0.174 0.191-0.323 0.354-0.485 0.509-0.511 0.49-1.119 0.522-1.566 0.085-0.458-0.447-0.437-1.086 0.064-1.608 0.133-0.139 0.269-0.27 0.423-0.42zM7.079 14.89c0.124 0.001 0.252 0.002 0.388 0.002 0-0.109-0.001-0.211-0.001-0.307-0.002-0.271-0.004-0.5 0.012-0.736 0.021-0.639 0.469-1.097 1.065-1.086 0.586 0 1.033 0.458 1.055 1.107 0.007 0.209 0.005 0.417 0.002 0.644-0.001 0.12-0.002 0.245-0.002 0.378 0.123 0 0.243-0.001 0.36-0.002 0.227-0.002 0.445-0.005 0.663 0.002 0.639 0.021 1.097 0.469 1.097 1.054 0 0.596-0.458 1.043-1.097 1.065-0.207 0.007-0.41 0.005-0.637 0.003-0.123-0.001-0.254-0.003-0.396-0.003 0 0.12 0.001 0.236 0.002 0.348 0.002 0.215 0.005 0.418-0.002 0.621-0.011 0.692-0.426 1.15-1.044 1.161-0.628 0.011-1.065-0.458-1.076-1.182v-0.948c-0.136 0-0.265 0.001-0.389 0.003-0.234 0.002-0.45 0.004-0.665-0.003-0.618-0.032-1.065-0.468-1.076-1.033-0.021-0.586 0.426-1.054 1.065-1.086 0.223-0.007 0.442-0.005 0.677-0.002z"></path>
<path d="M17.055 7.812v0.889h0.889v-0.889h-0.889zM14.945 7.812h-0.889v0.889h0.889v-0.889zM17.059 6.838v0zM17.055 4.99l0.889-0.020-0-0.007-0-0.007-0.888 0.034zM16.053 4l0.053-0.887-0.009-0.001-0.009-0-0.035 0.888zM14.956 4.884l-0.887-0.053-0 0.007-0 0.007 0.888 0.039zM14.94 6.922v0zM-0 21.589h0.889v-0.016l-0.001-0.016-0.888 0.033zM0.618 18.207v0zM-0.002 21.802v0zM-0 22.228l-0.888 0.044 0.001 0.012 0.887-0.056zM7.286 27.158l0.28 0.844 0.001-0-0.281-0.843zM10.62 24.070l-0.815-0.354-0.001 0.003 0.817 0.351zM13.582 21.185l0.298 0.837 0.002-0.001-0.3-0.837zM17.939 21.036l0.214-0.863-0.005-0.001-0.209 0.864zM21.209 23.985l0.813-0.36-0.001-0.003-0.812 0.362zM27.579 27.296l-0.2-0.866-0 0 0.201 0.866zM31.819 20.397l-0.86 0.225 0.001 0.002 0.859-0.228zM29.55 12.539v0zM19.835 9.76v0zM19.313 9.952v-0.889l-0.004 0 0.004 0.889zM12.602 9.952l0.004-0.889h-0.004v0.889zM12.037 9.75l0.603-0.653-0.006-0.006-0.597 0.659zM2.205 12.752l0.853 0.25 0.001-0.004-0.854-0.245zM1.86 13.926v0zM0.842 17.448l0.856 0.241 0-0.002-0.856-0.239zM22.53 15.893l0.628 0.629 0.667-0.667-0.705-0.627-0.59 0.665zM22.133 16.282v0zM22.205 15.615v0zM21.774 15.233v0zM21.656 13.593v0zM23.297 13.732v0zM23.85 14.314v0zM24.021 14.498l-0.65 0.606 0.662 0.71 0.649-0.721-0.661-0.595zM24.265 14.223v0zM24.809 13.636l-0.614-0.643-0.002 0.001 0.615 0.641zM26.333 13.583l0.621-0.636-0-0-0.62 0.637zM26.301 15.148l0.642 0.615 0.001-0.001-0.642-0.615zM25.693 15.706v0zM25.417 15.946l-0.588-0.667-0.734 0.647 0.715 0.669 0.607-0.649zM25.797 16.287v0zM26.29 16.745l0.642-0.615-0.001-0.001-0.641 0.616zM26.333 18.31v0zM24.778 18.235l-0.642 0.615 0.006 0.007 0.007 0.007 0.628-0.629zM24.312 17.692v0zM24.032 17.352l0.679-0.573-0.643-0.762-0.683 0.726 0.647 0.609zM23.696 17.716v0zM23.212 18.225v0zM21.646 18.31v0zM21.71 16.702l0.641 0.615 0.001-0.001-0.642-0.615zM7.467 14.892v0.889h0.889v-0.889h-0.889zM7.079 14.89v0zM7.466 14.585v0zM7.478 13.849l0.887 0.059 0.001-0.015 0.001-0.015-0.888-0.030zM8.543 12.763l-0.016 0.889 0.008 0h0.008v-0.889zM9.598 13.87v0zM9.6 14.514v0zM9.598 14.892h-0.889v0.889h0.889v-0.889zM9.958 14.89v0zM10.62 14.892l0.030-0.888-0.001-0-0.029 0.888zM10.62 17.011v0zM9.983 17.014v0zM9.587 17.011v-0.889h-0.889v0.889h0.889zM9.59 17.359v0zM9.587 17.98l-0.888-0.031-0 0.009-0 0.008 0.889 0.014zM8.543 19.14l0.015 0.889h0l-0.015-0.889zM7.467 17.959h-0.889v0.006l0 0.007 0.889-0.013zM7.467 17.011h0.889v-0.889h-0.889v0.889zM7.078 17.014v0zM6.413 17.011l-0.046 0.888 0.009 0 0.009 0 0.029-0.888zM5.337 15.978l0.889-0.017-0-0.008-0-0.008-0.888 0.032zM6.402 14.892l-0.028-0.888-0.008 0-0.008 0 0.044 0.888zM17.055 6.923h-2.109v1.778h2.109v-1.778zM16.171 6.831c-0.002 0.319-0.005 0.646-0.005 0.981h1.778c0-0.327 0.002-0.647 0.005-0.967l-1.778-0.013zM16.166 5.011c0.014 0.598 0.009 1.193 0.005 1.821l1.778 0.013c0.005-0.623 0.009-1.246-0.005-1.875l-1.777 0.041zM16 4.887c0.058 0.003 0.102 0.027 0.129 0.053 0.023 0.022 0.036 0.048 0.037 0.085l1.776-0.068c-0.041-1.057-0.896-1.787-1.836-1.843l-0.106 1.775zM15.843 4.937c-0.001 0.011-0.005 0.020-0.006 0.023-0.001 0.001 0.005-0.008 0.022-0.022s0.043-0.028 0.074-0.038c0.030-0.010 0.060-0.013 0.084-0.012l0.071-1.776c-0.881-0.035-1.952 0.578-2.020 1.719l1.775 0.107zM15.828 6.913c-0.007-0.688-0.013-1.341 0.016-1.99l-1.776-0.078c-0.031 0.705-0.024 1.406-0.017 2.086l1.778-0.017zM15.834 7.812c0-0.303-0.003-0.604-0.006-0.899l-1.778 0.017c0.003 0.296 0.006 0.588 0.006 0.881h1.778zM0.888 21.557c-0.037-1.007 0.243-1.968 0.581-3.094l-1.703-0.511c-0.324 1.081-0.705 2.321-0.655 3.67l1.777-0.065zM0.886 21.817c0.001-0.070 0.002-0.148 0.002-0.228h-1.778c0 0.062-0.001 0.126-0.002 0.198l1.778 0.030zM0.888 22.184c-0.005-0.107-0.004-0.22-0.001-0.367l-1.778-0.030c-0.002 0.137-0.005 0.309 0.003 0.485l1.776-0.089zM7.006 26.314c-2.969 0.986-5.921-1.015-6.119-4.142l-1.774 0.112c0.271 4.283 4.371 7.073 8.454 5.717l-0.56-1.687zM9.804 23.719c-0.553 1.286-1.481 2.156-2.799 2.595l0.562 1.687c1.814-0.604 3.123-1.842 3.87-3.58l-1.633-0.702zM13.284 20.347c-1.674 0.596-2.801 1.807-3.479 3.369l1.631 0.708c0.515-1.186 1.306-1.997 2.444-2.402l-0.596-1.675zM18.148 20.172c-1.581-0.383-3.243-0.405-4.866 0.176l0.599 1.674c1.232-0.441 2.531-0.441 3.848-0.122l0.419-1.728zM22.021 23.623c-0.74-1.659-1.948-2.973-3.868-3.45l-0.428 1.725c1.254 0.311 2.092 1.148 2.673 2.449l1.623-0.724zM27.378 26.43c-2.087 0.484-4.422-0.693-5.356-2.805l-1.626 0.719c1.26 2.85 4.421 4.505 7.384 3.818l-0.402-1.732zM30.96 20.625c0.665 2.508-1.014 5.211-3.581 5.806l0.401 1.732c3.505-0.811 5.831-4.475 4.898-7.993l-1.718 0.456zM28.703 12.81c0.825 2.58 1.567 5.184 2.256 7.812l1.72-0.451c-0.695-2.652-1.445-5.287-2.282-7.903l-1.693 0.542zM20.435 10.416c2.664-2.44 7.148-1.112 8.268 2.394l1.693-0.541c-1.479-4.628-7.456-6.559-11.162-3.164l1.201 1.311zM19.313 10.841c0.356 0 0.805-0.135 1.122-0.425l-1.201-1.311c0.027-0.025 0.047-0.036 0.052-0.040s0.008-0.004 0.004-0.002-0.003 0.001-0.005 0.001-0.002 0.001-0.002 0.001 0.002-0 0.006-0.001c0.004-0 0.011-0.001 0.022-0.001v1.778zM12.598 10.841c2.24 0.011 4.48 0.011 6.719 0l-0.008-1.778c-2.234 0.011-4.468 0.011-6.703 0l-0.008 1.778zM11.434 10.403c0.337 0.311 0.804 0.438 1.167 0.438v-1.778c0.008 0 0.009 0.001 0.004-0s-0.011-0.002-0.016-0.004c-0.005-0.002-0.005-0.002 0.002 0.001s0.023 0.014 0.048 0.036l-1.206 1.307zM3.059 12.998c1.048-3.649 5.64-5.070 8.381-2.589l1.193-1.318c-3.799-3.438-9.903-1.389-11.283 3.416l1.709 0.491zM2.713 14.177c0.115-0.391 0.231-0.783 0.345-1.175l-1.706-0.499c-0.114 0.391-0.229 0.781-0.344 1.172l1.705 0.502zM1.698 17.686c0.326-1.167 0.669-2.335 1.015-3.509l-1.705-0.502c-0.345 1.173-0.693 2.353-1.022 3.534l1.712 0.478zM1.47 18.463c0.076-0.252 0.154-0.512 0.228-0.775l-1.711-0.482c-0.069 0.245-0.143 0.491-0.219 0.745l1.703 0.511zM21.901 15.264c-0.142 0.142-0.268 0.264-0.387 0.379l1.237 1.277c0.119-0.115 0.253-0.245 0.407-0.399l-1.257-1.257zM21.634 16.297c0.104 0.087 0.203 0.17 0.305 0.261l1.181-1.329c-0.125-0.111-0.242-0.209-0.344-0.295l-1.142 1.363zM21.145 15.862c0.162 0.162 0.338 0.308 0.489 0.435l1.142-1.363c-0.164-0.138-0.278-0.233-0.374-0.329l-1.257 1.257zM21.028 12.965c-0.392 0.392-0.612 0.91-0.575 1.475 0.036 0.549 0.307 1.037 0.693 1.422l1.257-1.257c-0.158-0.158-0.174-0.261-0.175-0.281-0.001-0.011 0.001-0.018 0.004-0.028 0.004-0.010 0.017-0.036 0.054-0.073l-1.257-1.257zM23.925 13.103c-0.38-0.38-0.861-0.656-1.406-0.702-0.565-0.048-1.092 0.164-1.491 0.563l1.257 1.257c0.035-0.034 0.057-0.044 0.063-0.047s0.011-0.003 0.023-0.002c0.025 0.002 0.135 0.024 0.298 0.187l1.257-1.257zM24.502 13.71c-0.203-0.219-0.385-0.416-0.577-0.607l-1.257 1.257c0.163 0.163 0.322 0.334 0.53 0.558l1.303-1.209zM24.672 13.892c-0.059-0.064-0.116-0.124-0.17-0.183l-1.303 1.209c0.054 0.059 0.112 0.12 0.172 0.185l1.301-1.212zM23.597 13.637c-0.079 0.090-0.155 0.177-0.236 0.267l1.321 1.19c0.090-0.1 0.174-0.196 0.252-0.284l-1.337-1.172zM24.194 12.994c-0.22 0.211-0.417 0.436-0.597 0.642l1.337 1.172c0.19-0.217 0.337-0.383 0.492-0.532l-1.231-1.283zM26.953 12.946c-0.376-0.367-0.867-0.568-1.389-0.553-0.516 0.015-0.993 0.24-1.369 0.6l1.228 1.286c0.103-0.099 0.175-0.108 0.194-0.108 0.014-0 0.045 0 0.095 0.049l1.241-1.273zM26.943 15.762c0.366-0.383 0.596-0.871 0.606-1.4 0.010-0.535-0.207-1.037-0.596-1.416l-1.241 1.272c0.059 0.057 0.060 0.094 0.060 0.109-0 0.022-0.010 0.098-0.113 0.205l1.284 1.229zM26.274 16.378c0.227-0.196 0.455-0.393 0.668-0.615l-1.283-1.23c-0.145 0.151-0.308 0.293-0.548 0.501l1.163 1.344zM26.005 16.613c0.094-0.083 0.183-0.16 0.27-0.235l-1.163-1.344c-0.086 0.075-0.181 0.156-0.282 0.246l1.176 1.333zM26.383 15.619c-0.121-0.106-0.237-0.208-0.359-0.322l-1.214 1.299c0.145 0.136 0.282 0.256 0.401 0.36l1.172-1.337zM26.931 16.129c-0.183-0.191-0.376-0.359-0.549-0.51l-1.172 1.337c0.183 0.16 0.317 0.279 0.438 0.405l1.282-1.231zM26.953 18.946c0.384-0.375 0.601-0.874 0.59-1.408-0.010-0.529-0.24-1.020-0.612-1.408l-1.284 1.23c0.108 0.113 0.118 0.191 0.118 0.213 0 0.017-0.002 0.050-0.054 0.101l1.241 1.273zM24.149 18.864c0.372 0.372 0.851 0.62 1.383 0.644 0.54 0.024 1.039-0.189 1.422-0.562l-1.241-1.272c-0.036 0.035-0.062 0.048-0.074 0.053s-0.020 0.006-0.028 0.005c-0.011-0.001-0.087-0.008-0.204-0.125l-1.257 1.257zM23.622 18.252c0.157 0.193 0.325 0.401 0.514 0.598l1.283-1.23c-0.129-0.135-0.251-0.284-0.417-0.489l-1.38 1.121zM23.353 17.925c0.095 0.112 0.181 0.219 0.269 0.327l1.38-1.121c-0.087-0.107-0.184-0.226-0.291-0.353l-1.358 1.147zM24.353 18.314c0.101-0.111 0.206-0.226 0.326-0.353l-1.294-1.219c-0.131 0.139-0.245 0.264-0.346 0.375l1.314 1.198zM23.827 18.867c0.187-0.179 0.357-0.366 0.527-0.552l-1.314-1.198c-0.178 0.195-0.306 0.336-0.442 0.466l1.23 1.284zM21.025 18.946c0.384 0.375 0.885 0.585 1.428 0.556 0.529-0.029 1.001-0.278 1.374-0.636l-1.23-1.284c-0.138 0.133-0.226 0.143-0.24 0.144-0.008 0-0.014-0-0.022-0.004s-0.033-0.015-0.069-0.050l-1.242 1.272zM21.068 16.087c-0.37 0.385-0.618 0.874-0.638 1.414-0.021 0.551 0.201 1.061 0.595 1.446l1.242-1.272c-0.036-0.035-0.049-0.060-0.054-0.073s-0.007-0.021-0.006-0.034c0.001-0.022 0.014-0.114 0.145-0.25l-1.283-1.231zM21.515 15.643c-0.153 0.148-0.301 0.291-0.447 0.444l1.284 1.229c0.119-0.124 0.242-0.244 0.4-0.396l-1.237-1.277zM7.467 14.003c-0.131 0-0.255-0.001-0.38-0.002l-0.018 1.778c0.123 0.001 0.256 0.002 0.397 0.002v-1.778zM6.577 14.591c0.001 0.097 0.001 0.196 0.001 0.301h1.778c0-0.113-0.001-0.218-0.001-0.314l-1.778 0.013zM6.591 13.79c-0.018 0.274-0.016 0.537-0.014 0.802l1.778-0.013c-0.002-0.277-0.003-0.473 0.010-0.67l-1.774-0.118zM8.559 11.874c-1.14-0.020-1.934 0.882-1.97 1.945l1.777 0.059c0.004-0.118 0.044-0.174 0.063-0.194 0.016-0.017 0.041-0.034 0.098-0.033l0.032-1.777zM10.486 13.841c-0.035-1.067-0.818-1.967-1.943-1.967v1.778c0.052 0 0.078 0.016 0.098 0.037 0.022 0.023 0.064 0.085 0.069 0.211l1.777-0.058zM10.489 14.523c0.002-0.223 0.005-0.451-0.003-0.683l-1.777 0.059c0.006 0.186 0.004 0.375 0.002 0.605l1.778 0.018zM10.487 14.892c0-0.128 0.001-0.248 0.002-0.369l-1.778-0.018c-0.001 0.12-0.003 0.249-0.003 0.387h1.778zM9.948 14.001c-0.118 0.001-0.233 0.002-0.351 0.002v1.778c0.128 0 0.252-0.001 0.369-0.002l-0.018-1.778zM10.649 14.004c-0.24-0.008-0.477-0.005-0.701-0.003l0.018 1.778c0.23-0.002 0.429-0.004 0.625 0.002l0.057-1.777zM12.607 15.946c0-1.121-0.896-1.907-1.957-1.943l-0.059 1.777c0.118 0.004 0.177 0.044 0.201 0.067 0.021 0.020 0.037 0.048 0.037 0.099h1.778zM10.65 17.899c1.067-0.035 1.957-0.827 1.957-1.953h-1.778c0 0.061-0.020 0.091-0.040 0.111-0.023 0.022-0.081 0.062-0.198 0.066l0.059 1.777zM9.975 17.902c0.224 0.002 0.446 0.005 0.676-0.003l-0.059-1.777c-0.185 0.006-0.368 0.004-0.598 0.002l-0.018 1.778zM9.587 17.9c0.137 0 0.264 0.001 0.387 0.003l0.018-1.778c-0.123-0.001-0.258-0.003-0.405-0.003v1.778zM10.479 17.349c-0.001-0.113-0.002-0.223-0.002-0.338h-1.778c0 0.126 0.001 0.246 0.003 0.358l1.778-0.019zM10.476 18.011c0.008-0.227 0.005-0.45 0.003-0.661l-1.778 0.019c0.002 0.219 0.004 0.401-0.002 0.581l1.777 0.061zM8.559 20.029c0.537-0.009 1.035-0.22 1.395-0.618 0.352-0.391 0.515-0.898 0.523-1.417l-1.778-0.027c-0.003 0.173-0.053 0.24-0.066 0.254-0.007 0.008-0.014 0.013-0.024 0.017s-0.035 0.013-0.081 0.014l0.031 1.777zM6.579 17.972c0.008 0.535 0.176 1.057 0.54 1.454 0.372 0.406 0.888 0.613 1.44 0.604l-0.030-1.777c-0.044 0.001-0.067-0.007-0.076-0.011s-0.015-0.008-0.023-0.017c-0.014-0.016-0.070-0.090-0.073-0.279l-1.778 0.026zM6.578 17.011v0.948h1.778v-0.948h-1.778zM7.087 17.902c0.124-0.001 0.249-0.003 0.38-0.003v-1.778c-0.142 0-0.275 0.001-0.398 0.003l0.018 1.778zM6.384 17.899c0.238 0.008 0.473 0.005 0.703 0.003l-0.018-1.778c-0.237 0.002-0.434 0.004-0.628-0.002l-0.057 1.777zM4.448 15.995c0.021 1.085 0.892 1.851 1.919 1.904l0.092-1.775c-0.11-0.006-0.169-0.044-0.194-0.069-0.024-0.023-0.038-0.050-0.039-0.093l-1.777 0.034zM6.358 14.004c-1.075 0.054-1.95 0.886-1.909 2.006l1.777-0.065c-0.002-0.049 0.013-0.077 0.034-0.098 0.022-0.023 0.077-0.062 0.188-0.067l-0.089-1.776zM7.088 14.001c-0.232-0.002-0.469-0.005-0.713 0.003l0.056 1.777c0.202-0.006 0.402-0.004 0.64-0.002l0.018-1.778z"></path>
</symbol>
<symbol id="icon-fb" viewBox="0 0 32 32">
<path d="M32 16c0-8.837-7.163-16-16-16s-16 7.163-16 16c0 7.986 5.851 14.605 13.5 15.806v-11.181h-4.063v-4.625h4.063v-3.525c0-4.010 2.389-6.225 6.043-6.225 1.75 0 3.582 0.313 3.582 0.313v3.938h-2.018c-1.987 0-2.607 1.233-2.607 2.5v3h4.437l-0.709 4.625h-3.728v11.181c7.649-1.2 13.5-7.82 13.5-15.806z"></path>
</symbol>
<symbol id="icon-laptop" viewBox="0 0 32 32">
<path d="M26.509 4.96h-20.8c-1.055 0-1.348 0.292-1.348 1.316v11.012c0 1.014 0.303 1.316 1.299 1.316h20.849c0.996 0 1.299-0.302 1.299-1.316v-11.012c0-1.014-0.303-1.316-1.299-1.316zM2.7 26.4h26.779c0.234 0 0.488-0.010 0.713-0.088 0.518-0.175 0.674-0.604 0.41-1.082-0.928-1.695-1.866-3.381-2.803-5.067l-0.001-0.001c-0.225-0.39-0.547-0.585-0.996-0.585h-21.445c-0.449 0-0.772 0.195-0.987 0.585h-0c-0.938 1.686-1.876 3.372-2.804 5.068-0.264 0.478-0.098 0.906 0.42 1.082 0.215 0.078 0.469 0.088 0.713 0.088zM16.691 24.453c-0.205-0.001-0.41-0.002-0.616-0.002s-0.41 0.001-0.615 0.002c-0.411 0.002-0.824 0.004-1.242-0.002-0.625-0.010-1.055-0.4-1.065-0.955-0.010-0.575 0.43-0.984 1.084-0.984 1.231-0.010 2.472-0.010 3.703 0 0.625 0.010 1.055 0.4 1.065 0.955 0.010 0.565-0.43 0.975-1.084 0.984-0.41 0.006-0.821 0.004-1.231 0.002z"></path>
<path d="M30.192 26.312l-0.257-0.758-0.006 0.002 0.262 0.756zM30.603 25.231l-0.702 0.384 0.002 0.003 0.7-0.387zM27.799 20.164l0.699-0.389-0.001-0.001-0.698 0.39zM27.799 20.163l0.698-0.39-0.005-0.009-0.693 0.4zM4.371 20.163l0.7 0.387 0.001-0.001-0.701-0.386zM4.371 20.163l0.699 0.389 0.001-0.001-0.7-0.387zM1.567 25.231l0.7 0.387 0.002-0.003-0.702-0.384zM1.987 26.312l0.273-0.752-0.008-0.003-0.008-0.003-0.257 0.758zM16.691 24.453v0zM15.46 24.453v0zM14.219 24.451v0zM13.154 23.496v0zM14.238 22.512v0.8l0.006-0-0.006-0.8zM17.941 22.512l0.012-0.8-0.006-0-0.006 0.8zM19.006 23.467v0zM17.922 24.451l-0.012-0.8h-0.001l0.013 0.8zM16.104 5.76h10.405v-1.6h-10.405v1.6zM5.709 5.76h10.395v-1.6h-10.395v1.6zM5.161 6.276c0-0.226 0.017-0.36 0.037-0.438 0.018-0.069 0.028-0.058 0.001-0.032-0.026 0.026-0.032 0.012 0.046-0.007 0.086-0.021 0.229-0.038 0.464-0.038v-1.6c-0.54 0-1.177 0.059-1.63 0.503-0.458 0.449-0.519 1.085-0.519 1.613h1.6zM5.161 17.288v-11.012h-1.6v11.012h1.6zM5.66 17.804c-0.216 0-0.346-0.017-0.421-0.037-0.066-0.017-0.058-0.028-0.034-0.004s0.011 0.030-0.007-0.041c-0.020-0.079-0.038-0.213-0.038-0.434h-1.6c0 0.532 0.066 1.155 0.508 1.601 0.444 0.449 1.067 0.515 1.592 0.515v-1.6zM26.509 17.804h-20.849v1.6h20.849v-1.6zM27.009 17.288c0 0.221-0.017 0.355-0.038 0.434-0.018 0.071-0.030 0.065-0.007 0.041s0.032-0.014-0.034 0.004c-0.075 0.020-0.204 0.037-0.421 0.037v1.6c0.525 0 1.147-0.066 1.592-0.515 0.442-0.446 0.508-1.069 0.508-1.601h-1.6zM27.009 6.276v11.012h1.6v-11.012h-1.6zM26.509 5.76c0.216 0 0.346 0.017 0.421 0.037 0.066 0.017 0.058 0.028 0.034 0.004s-0.012-0.030 0.007 0.041c0.020 0.079 0.038 0.213 0.038 0.434h1.6c0-0.532-0.066-1.155-0.508-1.601-0.444-0.449-1.067-0.515-1.592-0.515v1.6zM16.036 25.6h-13.336v1.6h13.336v-1.6zM29.479 25.6h-13.443v1.6h13.443v-1.6zM29.93 25.556c-0.086 0.030-0.22 0.044-0.451 0.044v1.6c0.238 0 0.612-0.006 0.975-0.132l-0.524-1.512zM29.902 25.617c0.026 0.047 0.028 0.068 0.027 0.062-0-0.003-0.001-0.012 0-0.026s0.005-0.031 0.012-0.050 0.016-0.034 0.025-0.047c0.009-0.013 0.017-0.021 0.021-0.024 0.008-0.007-0.004 0.006-0.052 0.022l0.513 1.515c0.422-0.143 0.814-0.434 0.991-0.904 0.175-0.466 0.074-0.94-0.137-1.322l-1.4 0.774zM27.1 20.553c0.938 1.686 1.874 3.369 2.801 5.062l1.404-0.768c-0.929-1.698-1.868-3.386-2.806-5.071l-1.398 0.778zM27.1 20.553l0.001 0.001 1.396-0.781-1.397 0.78zM26.802 20.378c0.105 0 0.153 0.022 0.175 0.035 0.024 0.014 0.070 0.050 0.128 0.149l1.386-0.799c-0.167-0.29-0.394-0.547-0.7-0.728-0.307-0.182-0.645-0.258-0.99-0.258v1.6zM5.358 20.378h21.445v-1.6h-21.445v1.6zM5.071 20.549c0.052-0.094 0.094-0.125 0.114-0.137s0.066-0.034 0.172-0.034v-1.6c-0.344 0-0.683 0.076-0.991 0.259s-0.534 0.444-0.697 0.74l1.401 0.773zM5.071 20.55v0zM2.269 25.615c0.927-1.693 1.863-3.376 2.801-5.063l-1.398-0.778c-0.938 1.686-1.877 3.374-2.807 5.072l1.404 0.768zM2.244 25.555c-0.049-0.017-0.062-0.030-0.057-0.025 0.003 0.003 0.010 0.009 0.019 0.021s0.017 0.027 0.024 0.045 0.011 0.035 0.012 0.049c0.002 0.015 0.001 0.024 0 0.029-0.001 0.008-0-0.011 0.025-0.056l-1.401-0.774c-0.214 0.387-0.309 0.865-0.129 1.33s0.573 0.754 0.992 0.896l0.513-1.515zM2.7 25.6c-0.247 0-0.372-0.015-0.44-0.040l-0.546 1.504c0.362 0.131 0.745 0.136 0.986 0.136v-1.6zM16.075 25.251c0.203 0 0.406 0.001 0.611 0.002l0.008-1.6c-0.205-0.001-0.412-0.002-0.62-0.002v1.6zM15.464 25.253c0.206-0.001 0.408-0.002 0.611-0.002v-1.6c-0.207 0-0.414 0.001-0.619 0.002l0.008 1.6zM14.206 25.251c0.427 0.007 0.848 0.004 1.258 0.002l-0.008-1.6c-0.413 0.002-0.817 0.004-1.225-0.002l-0.025 1.6zM12.354 23.51c0.009 0.492 0.209 0.941 0.566 1.263 0.352 0.316 0.811 0.471 1.286 0.478l0.025-1.6c-0.15-0.002-0.219-0.048-0.241-0.068-0.016-0.015-0.036-0.038-0.037-0.102l-1.6 0.028zM14.238 21.712c-0.493 0-0.97 0.156-1.331 0.486-0.367 0.336-0.562 0.806-0.553 1.312l1.6-0.027c-0.001-0.039 0.006-0.062 0.011-0.073s0.011-0.021 0.022-0.031c0.020-0.018 0.090-0.067 0.252-0.067v-1.6zM17.947 21.712c-1.235-0.010-2.48-0.010-3.715 0l0.013 1.6c1.227-0.010 2.463-0.010 3.69 0l0.013-1.6zM19.806 23.453c-0.009-0.492-0.209-0.941-0.566-1.263-0.352-0.316-0.811-0.471-1.286-0.478l-0.025 1.6c0.15 0.002 0.219 0.048 0.241 0.068 0.016 0.015 0.036 0.038 0.037 0.102l1.6-0.028zM17.933 25.251c0.49-0.007 0.962-0.166 1.319-0.493 0.364-0.333 0.562-0.799 0.553-1.305l-1.6 0.028c0.001 0.035-0.006 0.054-0.010 0.065s-0.011 0.020-0.023 0.032c-0.023 0.021-0.099 0.072-0.263 0.074l0.024 1.6zM16.686 25.253c0.409 0.002 0.828 0.004 1.248-0.002l-0.025-1.6c-0.4 0.006-0.802 0.004-1.214 0.002l-0.008 1.6z"></path>
</symbol>
<symbol id="icon-phone" viewBox="0 0 32 32">
<path stroke-linejoin="miter" stroke-linecap="butt" stroke-miterlimit="4" stroke-width="0.8" d="M20.874 1.688v0.001c1.609 0.008 2.759 1.154 2.759 2.748v0.001c0.009 7.501 0.009 14.993 0 22.494v0.001c-0 1.596-1.152 2.747-2.748 2.748h-0.002c-3.102 0.009-6.205 0.009-9.307 0h-0.001c-0.882 0-1.585-0.288-2.067-0.767s-0.776-1.182-0.78-2.073c-0.018-3.722-0.009-7.435-0.009-11.16 0-3.716-0.009-7.438 0-11.152v-0.001c0-1.371 0.677-2.322 1.855-2.705l0.003-0.001c0.275-0.091 0.581-0.132 0.89-0.132h0.001c3.138-0.009 6.276-0.010 9.405-0.001zM16.181 24.464c-0.954 0-1.725 0.76-1.713 1.709 0.012 0.942 0.798 1.702 1.737 1.691 0.865-0.011 1.57-0.677 1.655-1.523l0.009-0.172c0.009-0.968-0.729-1.704-1.687-1.704zM14.33 3.497c-0.297 0.006-0.586 0.078-0.809 0.262-0.233 0.193-0.342 0.466-0.348 0.759-0.006 0.288 0.081 0.573 0.293 0.785 0.211 0.211 0.501 0.305 0.812 0.306v0.001c1.263 0.018 2.517 0.018 3.78 0h0.002c0.627-0.013 1.16-0.464 1.129-1.103-0.014-0.295-0.141-0.56-0.366-0.745-0.22-0.181-0.506-0.265-0.806-0.265h-3.686z"></path>
</symbol>
<symbol id="icon-play" viewBox="0 0 32 32">
<path d="M6 7.537c0-1.901 2.039-3.107 3.705-2.191l15.387 8.463c1.727 0.95 1.727 3.431 0 4.381l-15.387 8.463c-1.666 0.916-3.705-0.289-3.705-2.191v-16.926z"></path>
</symbol>
<symbol id="icon-search" viewBox="0 0 32 32">
<path stroke-linejoin="round" stroke-linecap="round" stroke-miterlimit="4" stroke-width="2.2857" d="M30.286 30.286l-8.414-8.414M21.872 21.872c2.197-2.197 3.557-5.233 3.557-8.586 0-6.706-5.437-12.143-12.143-12.143s-12.143 5.437-12.143 12.143c0 6.706 5.437 12.143 12.143 12.143 3.353 0 6.389-1.359 8.586-3.557z"></path>
</symbol>
<symbol id="icon-tablet" viewBox="0 0 32 32">
<path stroke-linejoin="miter" stroke-linecap="butt" stroke-miterlimit="4" stroke-width="0.8889" d="M12.538 28.655h6.427v-2.668h-6.427v2.668zM4.010 28.89c-0.010-4.298-0.010-8.606-0.010-12.905v-12.846c0-0.91 0.262-1.57 0.693-2.002s1.088-0.693 1.992-0.693h18.144c0.904 0 1.561 0.261 1.992 0.693s0.693 1.092 0.693 2.002v25.752c0 0.887-0.262 1.541-0.693 1.972s-1.082 0.693-1.963 0.693h-18.194c-0.88 0-1.531-0.263-1.962-0.696s-0.693-1.088-0.693-1.969v-0.001z"></path>
</symbol>
<symbol id="icon-tv" viewBox="0 0 32 32">
<path d="M2.24 18.677v0.384c9.259 0 18.456 0 27.689-0.009v-12.397c0-0.84-0.375-1.215-1.232-1.215h-25.225c-0.866 0-1.232 0.375-1.232 1.224v12.013zM15.246 14.638c-0.373 0.216-0.749 0.433-1.13 0.654v-5.252c0.966 0.563 1.918 1.111 2.881 1.666 0.55 0.317 1.103 0.635 1.664 0.96-1.157 0.666-2.274 1.312-3.415 1.972zM25.608 23.855c-0.088-0.216-0.179-0.438-0.269-0.668h0.001c1.205 0 2.339 0 3.455-0.009 0.607-0.009 1.071-0.348 1.098-0.893 0.031-0.519 0.023-1.041 0.016-1.569-0.003-0.235-0.007-0.472-0.007-0.709h-27.671v1.893c0 0.902 0.375 1.277 1.268 1.277h3.313c-0.277 0.696-0.536 1.339-0.794 1.982l-0 0c-0.107 0.286-0.152 0.572 0.205 0.706 0.348 0.134 0.518-0.098 0.634-0.384 0.078-0.194 0.158-0.386 0.238-0.579 0.193-0.465 0.386-0.93 0.556-1.404 0.098-0.259 0.232-0.322 0.491-0.322 5.295 0.009 10.59 0.009 15.885 0 0.277 0 0.393 0.089 0.482 0.339 0.203 0.538 0.419 1.062 0.637 1.59 0.032 0.077 0.064 0.154 0.096 0.232 0.022 0.049 0.042 0.096 0.062 0.143s0.040 0.094 0.062 0.143c0.116 0.259 0.357 0.384 0.571 0.232 0.143-0.098 0.268-0.411 0.214-0.572-0.155-0.477-0.344-0.941-0.544-1.431zM19.455 21.767h-3.393c-0.375 0-0.75-0.001-1.126-0.002-0.753-0.002-1.507-0.004-2.258 0.002-0.304 0-0.598-0.036-0.607-0.42-0.009-0.393 0.286-0.473 0.616-0.473h6.777c0.321 0 0.625 0.071 0.625 0.464 0 0.411-0.321 0.429-0.634 0.429z"></path>
<path d="M2.24 19.061h-0.8v0.8h0.8v-0.8zM29.929 19.052l0.001 0.8 0.799-0.001v-0.799h-0.8zM14.116 15.292h-0.8v1.387l1.2-0.694-0.4-0.693zM15.246 14.638v0zM14.116 10.040l0.403-0.691-1.203-0.701v1.392h0.8zM16.997 11.706v0zM18.661 12.666l0.399 0.693 1.202-0.692-1.2-0.694-0.4 0.693zM25.339 23.187v-0.8h-1.174l0.429 1.092 0.745-0.292zM25.608 23.855v0zM28.795 23.178l0.006 0.8 0.005-0-0.012-0.8zM29.893 22.285l-0.799-0.048-0 0.008 0.799 0.039zM29.909 20.716v0zM29.902 20.007h0.8v-0.8h-0.8v0.8zM2.231 20.007v-0.8h-0.8v0.8h0.8zM6.812 23.178l0.743 0.295 0.435-1.095h-1.179v0.8zM6.017 25.16v0zM6.017 25.161l-0.742-0.299-0.004 0.009-0.003 0.009 0.749 0.281zM6.222 25.866l0.287-0.747-0.006-0.002-0.281 0.749zM6.856 25.482v0zM7.095 24.903v0zM7.651 23.5l-0.748-0.284-0.002 0.006-0.002 0.006 0.753 0.271zM8.142 23.178l0.001-0.8h-0.001v0.8zM24.027 23.178v-0.8h-0.001l0.001 0.8zM24.509 23.517l-0.753 0.269 0.002 0.007 0.002 0.006 0.749-0.282zM25.146 25.108v0zM25.241 25.339l-0.74 0.305 0.006 0.013 0.006 0.013 0.728-0.331zM25.366 25.625l0.73-0.327-0.002-0.004-0.728 0.331zM25.938 25.857l-0.453-0.659-0.009 0.006 0.462 0.653zM26.152 25.286l-0.761 0.247 0.002 0.006 0.759-0.253zM14.936 21.765v0zM12.678 21.767v0.8l0.006-0-0.006-0.8zM12.071 21.347v0zM3.040 19.061v-0.384h-1.6v0.384h1.6zM29.928 18.252c-9.232 0.009-18.429 0.009-27.688 0.009v1.6c9.259 0 18.457 0 27.69-0.009l-0.002-1.6zM29.129 18.668v0.384h1.6v-0.384h-1.6zM29.129 6.655v12.013h1.6v-12.013h-1.6zM28.697 6.24c0.332 0 0.389 0.075 0.375 0.061-0.016-0.016 0.057 0.034 0.057 0.353h1.6c0-0.52-0.114-1.078-0.532-1.491-0.416-0.411-0.975-0.524-1.5-0.524v1.6zM3.472 6.24h25.225v-1.6h-25.225v1.6zM3.040 6.664c0-0.33 0.074-0.381 0.057-0.364s0.036-0.059 0.375-0.059v-1.6c-0.527 0-1.090 0.111-1.507 0.528s-0.526 0.977-0.526 1.496h1.6zM3.040 18.677v-12.013h-1.6v12.013h1.6zM14.516 15.984c0.381-0.22 0.757-0.438 1.13-0.654l-0.801-1.385c-0.373 0.216-0.749 0.433-1.13 0.653l0.801 1.385zM13.316 10.040v5.252h1.6v-5.252h-1.6zM17.396 11.013c-0.963-0.555-1.913-1.102-2.878-1.664l-0.805 1.383c0.968 0.564 1.922 1.113 2.884 1.668l0.799-1.386zM19.061 11.973c-0.562-0.325-1.115-0.644-1.665-0.96l-0.799 1.386c0.55 0.317 1.102 0.635 1.663 0.959l0.801-1.385zM15.646 15.33c1.141-0.66 2.257-1.306 3.414-1.972l-0.798-1.387c-1.158 0.667-2.275 1.313-3.416 1.973l0.801 1.385zM24.595 23.479c0.092 0.235 0.185 0.462 0.273 0.678l1.482-0.604c-0.089-0.217-0.177-0.434-0.265-0.659l-1.489 0.585zM25.34 22.387h-0.001v1.6h0.001v-1.6zM28.788 22.378c-1.112 0.009-2.243 0.009-3.448 0.009v1.6c1.205 0 2.342 0 3.461-0.009l-0.013-1.6zM29.094 22.246c-0.001 0.025-0.006 0.035-0.007 0.037s-0.006 0.010-0.021 0.022c-0.032 0.025-0.12 0.071-0.283 0.074l0.024 1.6c0.875-0.013 1.831-0.549 1.886-1.654l-1.598-0.079zM29.109 20.728c0.008 0.532 0.014 1.025-0.014 1.51l1.597 0.095c0.033-0.553 0.025-1.106 0.017-1.628l-1.6 0.023zM29.102 20.007c0 0.244 0.003 0.486 0.007 0.721l1.6-0.023c-0.003-0.236-0.007-0.467-0.007-0.697h-1.6zM2.231 20.807h27.671v-1.6h-27.671v1.6zM3.031 21.901v-1.893h-1.6v1.893h1.6zM3.499 22.378c-0.171 0-0.278-0.018-0.34-0.038-0.030-0.009-0.046-0.017-0.053-0.022-0.004-0.002-0.006-0.004-0.007-0.004s-0.001-0.001-0.001-0.001-0-0-0-0-0-0-0-0-0-0-0.001-0.001-0.002-0.003-0.005-0.008c-0.005-0.008-0.013-0.025-0.022-0.056-0.020-0.064-0.038-0.174-0.038-0.348h-1.6c0 0.538 0.108 1.115 0.532 1.541 0.425 0.427 1.001 0.536 1.536 0.536v-1.6zM6.812 22.378h-3.313v1.6h3.313v-1.6zM6.759 25.459c0.259-0.643 0.518-1.287 0.796-1.986l-1.487-0.591c-0.276 0.694-0.534 1.336-0.793 1.979l1.484 0.598zM6.759 25.46v0zM6.503 25.117c0.002 0.001 0.059 0.023 0.12 0.092 0.066 0.075 0.1 0.161 0.112 0.233 0.010 0.062 0.001 0.096 0.003 0.086s0.009-0.036 0.028-0.086l-1.498-0.562c-0.058 0.156-0.168 0.471-0.112 0.819 0.032 0.196 0.115 0.397 0.27 0.572 0.15 0.17 0.335 0.277 0.516 0.345l0.562-1.498zM6.115 25.181c-0.019 0.047-0.031 0.068-0.035 0.074s0.012-0.023 0.059-0.059c0.054-0.041 0.132-0.079 0.224-0.089 0.087-0.010 0.141 0.010 0.146 0.012l-0.574 1.493c0.395 0.152 0.826 0.124 1.178-0.146 0.279-0.214 0.416-0.515 0.484-0.683l-1.482-0.602zM6.356 24.597c-0.080 0.192-0.161 0.388-0.241 0.585l1.483 0.601c0.077-0.19 0.156-0.38 0.236-0.573l-1.478-0.613zM6.898 23.229c-0.163 0.453-0.348 0.9-0.542 1.368l1.478 0.613c0.192-0.462 0.392-0.945 0.57-1.439l-1.505-0.542zM8.142 22.378c-0.174 0-0.455 0.016-0.725 0.182-0.287 0.176-0.432 0.439-0.514 0.656l1.496 0.567c0.016-0.042-0.013 0.060-0.144 0.14-0.114 0.070-0.198 0.055-0.113 0.055v-1.6zM24.025 22.378c-5.294 0.009-10.588 0.009-15.882 0l-0.003 1.6c5.296 0.009 10.592 0.009 15.887 0l-0.003-1.6zM25.262 23.248c-0.066-0.186-0.189-0.452-0.458-0.645-0.271-0.194-0.566-0.226-0.777-0.226v1.6c0.066 0-0.033 0.013-0.155-0.074-0.12-0.086-0.14-0.182-0.117-0.118l1.507-0.538zM25.885 24.803c-0.219-0.53-0.43-1.043-0.628-1.567l-1.497 0.564c0.208 0.551 0.429 1.087 0.646 1.613l1.479-0.61zM25.981 25.035c-0.032-0.078-0.064-0.155-0.096-0.232l-1.479 0.61c0.032 0.077 0.064 0.154 0.095 0.231l1.48-0.609zM26.039 25.167c-0.020-0.046-0.043-0.101-0.070-0.159l-1.457 0.662c0.018 0.040 0.035 0.079 0.056 0.127l1.471-0.63zM26.094 25.294c-0.018-0.040-0.035-0.079-0.055-0.127l-1.471 0.63c0.020 0.046 0.043 0.101 0.070 0.159l1.457-0.662zM25.475 25.205c0.049-0.035 0.123-0.069 0.218-0.079s0.179 0.008 0.244 0.037c0.123 0.054 0.157 0.131 0.159 0.135l-1.46 0.654c0.118 0.263 0.331 0.532 0.657 0.675 0.36 0.158 0.771 0.12 1.107-0.118l-0.925-1.306zM25.393 25.539c-0.037-0.111-0.028-0.191-0.026-0.205 0.003-0.023 0.006-0.030 0.005-0.025s-0.001 0.002 0.005-0.008c0.003-0.004 0.034-0.051 0.107-0.102l0.907 1.318c0.263-0.181 0.406-0.456 0.474-0.635 0.064-0.167 0.161-0.502 0.046-0.849l-1.518 0.506zM24.868 24.157c0.202 0.495 0.379 0.932 0.524 1.376l1.522-0.494c-0.165-0.51-0.366-1.001-0.564-1.486l-1.482 0.604zM16.062 22.567h3.393v-1.6h-3.393v1.6zM14.934 22.565c0.376 0.001 0.753 0.002 1.129 0.002v-1.6c-0.374 0-0.748-0.001-1.124-0.002l-0.004 1.6zM12.684 22.567c0.745-0.006 1.496-0.004 2.249-0.002l0.004-1.6c-0.752-0.002-1.511-0.004-2.266 0.002l0.013 1.6zM11.271 21.366c0.005 0.197 0.048 0.412 0.166 0.614 0.122 0.207 0.292 0.348 0.467 0.436 0.303 0.153 0.633 0.152 0.775 0.152v-1.6c-0.065 0-0.098-0.002-0.116-0.005-0.019-0.003 0.011-0.002 0.063 0.025 0.062 0.031 0.138 0.091 0.192 0.183 0.051 0.087 0.054 0.153 0.054 0.158l-1.6 0.037zM12.687 20.074c-0.196 0-0.54 0.017-0.851 0.206-0.394 0.24-0.575 0.649-0.565 1.086l1.6-0.036c0 0.002 0.001 0.058-0.039 0.137-0.042 0.084-0.106 0.145-0.165 0.18-0.050 0.031-0.083 0.034-0.072 0.032s0.038-0.005 0.091-0.005v-1.6zM19.464 20.074h-6.777v1.6h6.777v-1.6zM20.889 21.338c0-0.201-0.039-0.416-0.149-0.619-0.112-0.207-0.272-0.355-0.443-0.454-0.309-0.178-0.647-0.192-0.833-0.192v1.6c0.054 0 0.084 0.003 0.096 0.005 0.014 0.002-0.015-0-0.063-0.028-0.055-0.032-0.12-0.088-0.164-0.171-0.042-0.078-0.044-0.137-0.044-0.142h1.6zM19.455 22.567c0.124 0 0.466 0.008 0.773-0.136 0.182-0.085 0.366-0.227 0.495-0.447 0.126-0.213 0.166-0.441 0.166-0.646h-1.6c0-0 0-0.018 0.007-0.048s0.022-0.072 0.049-0.118c0.060-0.101 0.144-0.162 0.206-0.191 0.051-0.024 0.077-0.023 0.049-0.020-0.027 0.003-0.068 0.004-0.144 0.004v1.6z"></path>
</symbol>
<symbol id="icon-twitter" viewBox="0 0 32 32">
<path d="M10.067 28.668c12.072 0 18.678-10.004 18.678-18.677 0-0.281-0.006-0.569-0.019-0.85 1.285-0.929 2.394-2.080 3.274-3.399-1.197 0.532-2.467 0.88-3.768 1.031 1.37-0.821 2.395-2.111 2.887-3.631-1.289 0.764-2.698 1.302-4.168 1.593-0.99-1.052-2.299-1.749-3.725-1.982s-2.889 0.009-4.163 0.691c-1.274 0.681-2.288 1.763-2.885 3.079s-0.745 2.791-0.419 4.199c-2.609-0.131-5.162-0.809-7.493-1.99s-4.387-2.838-6.036-4.865c-0.838 1.445-1.095 3.155-0.717 4.782s1.36 3.050 2.748 3.979c-1.042-0.033-2.062-0.314-2.974-0.819v0.081c-0.001 1.516 0.523 2.986 1.484 4.16s2.297 1.978 3.784 2.278c-0.966 0.264-1.979 0.303-2.962 0.113 0.419 1.304 1.236 2.445 2.335 3.263s2.426 1.272 3.795 1.3c-2.325 1.826-5.198 2.817-8.154 2.812-0.524-0.001-1.048-0.033-1.569-0.096 3.004 1.927 6.498 2.951 10.067 2.949z"></path>
</symbol>
<symbol id="icon-vr" viewBox="0 0 32 32">
<path d="M14.976 9.030c0.274-0.001 0.549-0.002 0.821-0.002 0.282 0 0.566 0.001 0.85 0.002 0.571 0.002 1.144 0.004 1.718-0.002 0.889-0.020 1.393-0.523 1.403-1.422 0.010-0.79 0.010-1.58 0-2.37 0-0.938-0.524-1.471-1.462-1.471h-4.989c-0.929 0.010-1.442 0.533-1.452 1.481v2.32c0 0.948 0.504 1.451 1.462 1.461 0.547 0.007 1.098 0.004 1.648 0.002zM26.081 11.674h-20.499c-1.877 0-2.914 1.037-2.934 2.933-0.010 0.829-0.198 1.017-1.018 1.017-0.040 0-0.079-0.001-0.117-0.002-0.076-0.002-0.15-0.004-0.229 0.002-0.731 0.049-1.265 0.563-1.274 1.303-0.010 1.758-0.010 3.525 0.010 5.283 0 0.76 0.543 1.274 1.314 1.313h0.494c0.573 0.020 0.8 0.237 0.83 0.81v0.444c0.030 1.6 1.126 2.686 2.727 2.696 1.284 0.010 2.569 0.010 3.853 0 1.156 0 2.203-0.346 3.132-1.027 0.331-0.247 0.659-0.494 0.988-0.741s0.657-0.494 0.988-0.741c1.037-0.77 1.946-0.77 2.984 0.010 0.296 0.217 0.589 0.438 0.883 0.66 0.375 0.282 0.75 0.565 1.132 0.841 0.682 0.504 1.442 0.879 2.302 0.918 1.288 0.060 2.584 0.068 3.88 0.076 0.185 0.001 0.37 0.002 0.555 0.003 1.818 0.010 2.895-1.057 2.904-2.864 0.010-0.928 0.168-1.086 1.097-1.086 1.037 0 1.551-0.504 1.551-1.53v-4.838c0-1.027-0.514-1.53-1.551-1.53-0.929-0.010-1.087-0.158-1.097-1.086-0.020-1.807-1.087-2.864-2.904-2.864z"></path>
<path d="M14.976 9.030v0zM16.647 9.030v0zM18.366 9.028l0.011 0.941 0.010-0-0.021-0.941zM19.768 7.606l-0.941-0.012v0.001l0.941 0.010zM19.768 5.236h-0.941l0 0.012 0.941-0.012zM13.317 3.765v-0.941l-0.010 0 0.010 0.941zM11.865 5.246l-0.941-0.010v0.010h0.941zM13.327 9.028l0.011-0.941-0.002-0-0.010 0.941zM2.648 14.607l0.941 0.011 0-0.001-0.941-0.010zM1.513 15.621v0zM1.284 15.624l0.063 0.939 0.007-0 0.007-0.001-0.078-0.938zM0.010 16.927l-0.941-0.013-0 0.007 0.941 0.005zM0.020 22.21h0.941l-0-0.011-0.941 0.011zM1.334 23.523l-0.048 0.94 0.024 0.001h0.024v-0.941zM1.828 23.523l0.032-0.941-0.016-0.001h-0.016v0.941zM2.658 24.333h0.941v-0.024l-0.001-0.024-0.94 0.049zM2.658 24.777h-0.941v0.009l0 0.009 0.941-0.017zM5.384 27.472l0.007-0.941h-0.001l-0.006 0.941zM9.237 27.472v-0.941h-0.007l0.007 0.941zM12.369 26.446l0.557 0.759 0.006-0.004-0.563-0.754zM13.357 25.705v0zM14.345 24.964l-0.561-0.756-0.002 0.001 0.563 0.754zM17.328 24.974l-0.566 0.752 0.008 0.006 0.557-0.758zM18.211 25.634v0zM19.344 26.475l0.559-0.757-0.007-0.005-0.552 0.762zM21.646 27.393l0.044-0.94-0.001-0-0.043 0.94zM25.526 27.469v0zM26.081 27.472l-0.006 0.941h0.001l0.005-0.941zM28.986 24.609l-0.941-0.010v0.005l0.941 0.005zM30.082 15.624l-0.010 0.941h0.010v-0.941zM28.986 14.537v0zM15.797 8.086c-0.275 0-0.551 0.001-0.825 0.002l0.008 1.882c0.275-0.001 0.547-0.002 0.818-0.002v-1.882zM16.651 8.089c-0.284-0.001-0.569-0.002-0.854-0.002v1.882c0.28 0 0.562 0.001 0.847 0.002l0.007-1.882zM18.355 8.086c-0.565 0.007-1.132 0.004-1.704 0.002l-0.007 1.882c0.57 0.002 1.151 0.004 1.733-0.002l-0.022-1.882zM18.827 7.595c-0.003 0.278-0.078 0.367-0.099 0.389s-0.11 0.097-0.383 0.103l0.042 1.882c0.616-0.014 1.224-0.2 1.679-0.66s0.637-1.071 0.644-1.692l-1.882-0.021zM18.827 5.248c0.010 0.782 0.010 1.564 0 2.346l1.882 0.024c0.010-0.798 0.010-1.596 0-2.393l-1.882 0.024zM18.306 4.706c0.293 0 0.39 0.080 0.414 0.105 0.026 0.026 0.107 0.127 0.107 0.425h1.882c0-0.64-0.181-1.275-0.652-1.75-0.472-0.476-1.107-0.663-1.752-0.663v1.882zM13.317 4.706h4.989v-1.882h-4.989v1.882zM12.806 5.256c0.003-0.311 0.086-0.416 0.112-0.443 0.024-0.024 0.117-0.104 0.409-0.107l-0.020-1.882c-0.637 0.007-1.265 0.194-1.733 0.671-0.465 0.474-0.644 1.105-0.651 1.742l1.882 0.020zM12.806 7.566v-2.32h-1.882v2.32h1.882zM13.337 8.086c-0.324-0.003-0.418-0.087-0.435-0.103-0.015-0.015-0.096-0.103-0.096-0.417h-1.882c0 0.634 0.171 1.272 0.648 1.748 0.475 0.475 1.112 0.648 1.746 0.654l0.019-1.882zM14.972 8.089c-0.551 0.002-1.095 0.004-1.633-0.002l-0.023 1.882c0.556 0.007 1.115 0.004 1.663 0.002l-0.008-1.882zM15.807 12.615h10.274v-1.882h-10.274v1.882zM5.582 12.615h10.225v-1.882h-10.225v1.882zM3.589 14.616c0.008-0.783 0.223-1.25 0.495-1.521 0.271-0.27 0.729-0.48 1.498-0.48v-1.882c-1.108 0-2.107 0.309-2.829 1.031-0.721 0.721-1.035 1.721-1.046 2.833l1.882 0.020zM1.63 16.565c0.388 0 1.023-0.019 1.478-0.473 0.451-0.45 0.476-1.083 0.481-1.474l-1.882-0.022c-0.001 0.087-0.004 0.155-0.009 0.208s-0.010 0.083-0.013 0.095c-0.003 0.012-0.001-0.001 0.013-0.028 0.015-0.030 0.041-0.070 0.081-0.11s0.081-0.066 0.112-0.082c0.029-0.014 0.044-0.017 0.034-0.014s-0.038 0.008-0.090 0.012c-0.051 0.004-0.117 0.007-0.203 0.007v1.882zM1.486 16.562c0.036 0.001 0.089 0.003 0.144 0.003v-1.882c-0.024 0-0.050-0.001-0.090-0.002l-0.054 1.882zM1.362 16.561c0.018-0.002 0.041-0.002 0.123 0.001l0.054-1.882c-0.069-0.002-0.195-0.007-0.334 0.005l0.156 1.876zM0.951 16.939c0.002-0.138 0.047-0.214 0.093-0.26 0.049-0.050 0.143-0.107 0.304-0.117l-0.127-1.878c-1.178 0.080-2.135 0.958-2.152 2.23l1.882 0.025zM0.961 22.199c-0.020-1.751-0.020-3.513-0.010-5.267l-1.882-0.011c-0.010 1.761-0.010 3.534 0.010 5.299l1.882-0.021zM1.382 22.583c-0.188-0.010-0.288-0.072-0.334-0.117-0.040-0.040-0.087-0.111-0.087-0.256h-1.882c0 0.615 0.225 1.181 0.649 1.598 0.418 0.411 0.975 0.625 1.558 0.655l0.096-1.88zM1.828 22.582h-0.494v1.882h0.494v-1.882zM3.598 24.284c-0.019-0.375-0.11-0.864-0.495-1.239-0.383-0.372-0.872-0.45-1.242-0.463l-0.065 1.881c0.044 0.002 0.075 0.005 0.095 0.008s0.027 0.005 0.023 0.004c-0.004-0.001-0.021-0.007-0.044-0.020s-0.052-0.033-0.079-0.060c-0.027-0.026-0.048-0.054-0.063-0.078s-0.021-0.041-0.023-0.047c-0.002-0.005 0-0 0.004 0.019s0.007 0.049 0.009 0.092l1.88-0.097zM3.599 24.777v-0.444h-1.882v0.444h1.882zM5.39 26.531c-0.583-0.004-1.013-0.199-1.296-0.48s-0.484-0.709-0.495-1.292l-1.882 0.035c0.019 1.016 0.381 1.931 1.053 2.596s1.591 1.017 2.608 1.024l0.012-1.882zM9.23 26.531c-1.279 0.010-2.559 0.010-3.838 0l-0.014 1.882c1.289 0.010 2.578 0.010 3.867 0l-0.014-1.882zM11.812 25.687c-0.768 0.564-1.621 0.845-2.575 0.845v1.882c1.357 0 2.599-0.41 3.688-1.209l-1.114-1.518zM12.791 24.953c-0.329 0.247-0.656 0.493-0.985 0.738l1.125 1.509c0.333-0.248 0.662-0.496 0.991-0.743l-1.131-1.505zM13.782 24.21c-0.333 0.248-0.662 0.496-0.991 0.743l1.131 1.505c0.329-0.247 0.656-0.493 0.985-0.739l-1.125-1.509zM17.894 24.222c-0.621-0.467-1.301-0.773-2.055-0.775s-1.434 0.301-2.055 0.762l1.122 1.511c0.416-0.309 0.709-0.391 0.928-0.391s0.512 0.084 0.928 0.397l1.131-1.504zM18.777 24.882c-0.293-0.221-0.591-0.445-0.892-0.666l-1.115 1.517c0.29 0.213 0.58 0.431 0.875 0.653l1.132-1.504zM19.896 25.713c-0.374-0.271-0.742-0.548-1.118-0.831l-1.132 1.504c0.373 0.281 0.756 0.569 1.146 0.852l1.104-1.525zM21.689 26.453c-0.604-0.028-1.187-0.292-1.786-0.735l-1.119 1.514c0.764 0.564 1.703 1.050 2.818 1.101l0.086-1.88zM25.531 26.528c-1.3-0.008-2.576-0.015-3.842-0.075l-0.088 1.88c1.311 0.062 2.626 0.069 3.919 0.077l0.011-1.882zM26.088 26.531c-0.186-0.001-0.371-0.002-0.556-0.003l-0.011 1.882c0.185 0.001 0.37 0.002 0.555 0.003l0.013-1.882zM28.045 24.604c-0.004 0.718-0.216 1.173-0.494 1.448s-0.74 0.483-1.464 0.479l-0.010 1.882c1.093 0.006 2.080-0.315 2.796-1.022s1.048-1.688 1.054-2.778l-1.882-0.010zM30.082 22.582c-0.245 0-0.506 0.009-0.748 0.058-0.252 0.051-0.554 0.158-0.808 0.41s-0.364 0.553-0.417 0.804c-0.051 0.24-0.063 0.501-0.065 0.746l1.882 0.020c0.001-0.104 0.004-0.186 0.009-0.252s0.011-0.105 0.015-0.125c0.008-0.040-0.002 0.047-0.099 0.144s-0.185 0.106-0.146 0.099c0.020-0.004 0.058-0.010 0.124-0.014s0.147-0.007 0.252-0.007v-1.882zM30.692 21.992c0 0.368-0.091 0.465-0.106 0.48-0.017 0.017-0.123 0.109-0.504 0.109v1.882c0.657 0 1.326-0.159 1.825-0.651 0.502-0.494 0.667-1.162 0.667-1.821h-1.882zM30.692 17.154v4.838h1.882v-4.838h-1.882zM30.082 16.565c0.381 0 0.487 0.093 0.504 0.109 0.015 0.014 0.106 0.112 0.106 0.48h1.882c0-0.659-0.166-1.327-0.667-1.821-0.499-0.492-1.168-0.651-1.825-0.651v1.882zM28.045 14.547c0.003 0.244 0.014 0.505 0.065 0.745 0.053 0.251 0.164 0.552 0.419 0.803 0.254 0.25 0.555 0.356 0.803 0.407 0.238 0.049 0.497 0.060 0.74 0.062l0.020-1.882c-0.105-0.001-0.188-0.004-0.255-0.009s-0.107-0.011-0.128-0.015c-0.043-0.009 0.043 0 0.14 0.096 0.098 0.097 0.11 0.186 0.102 0.148-0.004-0.019-0.010-0.057-0.015-0.123s-0.008-0.147-0.009-0.251l-1.882 0.020zM26.081 12.615c0.727 0 1.187 0.208 1.465 0.483s0.49 0.729 0.498 1.45l1.882-0.021c-0.012-1.086-0.343-2.063-1.058-2.769s-1.697-1.025-2.788-1.025v1.882z"></path>
</symbol>
<symbol id="icon-in" viewBox="0 0 32 32">
<path d="M29.631 0h-27.269c-1.306 0-2.362 1.031-2.362 2.306v27.381c0 1.275 1.056 2.313 2.362 2.313h27.269c1.306 0 2.369-1.037 2.369-2.306v-27.387c0-1.275-1.063-2.306-2.369-2.306zM9.494 27.269h-4.75v-15.275h4.75v15.275zM7.119 9.912c-1.525 0-2.756-1.231-2.756-2.75s1.231-2.75 2.756-2.75c1.519 0 2.75 1.231 2.75 2.75 0 1.512-1.231 2.75-2.75 2.75zM27.269 27.269h-4.744v-7.425c0-1.769-0.031-4.050-2.469-4.050-2.469 0-2.844 1.931-2.844 3.925v7.55h-4.738v-15.275h4.55v2.087h0.063c0.631-1.2 2.181-2.469 4.488-2.469 4.806 0 5.694 3.163 5.694 7.275v8.381z"></path>
</symbol>
</defs>
</svg>
