<svg aria-hidden="true" style="position: absolute; width: 0; height: 0; overflow: hidden;" version="1.1" xmlns="http://www.w3.org/2000/svg" xmlns:xlink="http://www.w3.org/1999/xlink">
<defs>
<symbol id="icon-untitled" viewBox="0 0 32 32">
<path stroke-linejoin="round" stroke-linecap="round" stroke-miterlimit="4" stroke-width="2.2857" d="M16 8v16M24 16h-16"></path>
</symbol>
<symbol id="icon-calendar" viewBox="0 0 32 32">
<path stroke-linejoin="round" stroke-linecap="round" stroke-miterlimit="4" stroke-width="2" d="M9 4v3M23 4v3M4 25v-15c0-1.657 1.343-3 3-3h18c1.657 0 3 1.343 3 3v15M4 25c0 1.657 1.343 3 3 3h18c1.657 0 3-1.343 3-3M4 25v-10c0-1.657 1.343-3 3-3h18c1.657 0 3 1.343 3 3v10"></path>
</symbol>
<symbol id="icon-language" viewBox="0 0 32 32">
<path stroke-linejoin="round" stroke-linecap="round" stroke-miterlimit="4" stroke-width="2" d="M14 28l7-15 7 15M16 24h10M4 7.495c2.621-0.327 5.291-0.495 8-0.495M12 7c1.494 0 2.977 0.051 4.446 0.152M12 7v-3M16.446 7.152c-1.544 7.058-6.194 12.955-12.446 16.184M16.446 7.152c1.194 0.082 2.379 0.197 3.554 0.343M13.882 18.822c-2.168-2.206-3.912-4.828-5.103-7.737"></path>
</symbol>
<symbol id="icon-ok" viewBox="0 0 32 32">
<path stroke-linejoin="round" stroke-linecap="round" stroke-miterlimit="4" stroke-width="2.2857" d="M8.843 13.667c1.075 0 2.045-0.595 2.709-1.44 1.031-1.314 2.33-2.408 3.815-3.199 0.963-0.513 1.798-1.275 2.203-2.287 0.284-0.709 0.429-1.465 0.429-2.228v-0.845c0-0.552 0.448-1 1-1 1.657 0 3 1.343 3 3 0 1.535-0.346 2.99-0.964 4.29-0.354 0.744 0.143 1.71 0.967 1.71M22.003 11.667h4.168c1.369 0 2.594 0.925 2.739 2.286 0.060 0.563 0.091 1.135 0.091 1.714 0 3.797-1.323 7.285-3.532 10.028-0.517 0.642-1.316 0.972-2.14 0.972h-5.355c-0.645 0-1.286-0.104-1.897-0.308l-4.153-1.384c-0.612-0.204-1.252-0.308-1.897-0.308h-2.154M22.003 11.667h-3.003M7.872 24.667c0.11 0.273 0.231 0.541 0.36 0.803 0.263 0.533-0.104 1.197-0.698 1.197h-1.21c-1.185 0-2.284-0.691-2.63-1.824-0.451-1.479-0.694-3.049-0.694-4.676 0-2.070 0.393-4.048 1.109-5.864 0.407-1.032 1.448-1.636 2.557-1.636h1.404c0.629 0 0.994 0.741 0.667 1.279-1.102 1.814-1.736 3.943-1.736 6.221 0 1.591 0.31 3.11 0.872 4.5z"></path>
</symbol>
<symbol id="icon-raitingStar" viewBox="0 0 32 32">
<path stroke-linejoin="round" stroke-linecap="round" stroke-miterlimit="4" stroke-width="2" d="M15.308 4.665c0.256-0.616 1.129-0.616 1.385 0l2.835 6.815c0.108 0.26 0.352 0.437 0.633 0.46l7.358 0.59c0.665 0.053 0.935 0.883 0.428 1.317l-5.606 4.802c-0.214 0.183-0.307 0.47-0.242 0.744l1.713 7.18c0.155 0.649-0.551 1.162-1.12 0.814l-6.299-3.847c-0.24-0.147-0.542-0.147-0.782 0l-6.299 3.847c-0.569 0.348-1.275-0.165-1.12-0.814l1.713-7.18c0.065-0.274-0.028-0.561-0.242-0.744l-5.606-4.802c-0.507-0.434-0.237-1.264 0.428-1.317l7.358-0.59c0.28-0.022 0.525-0.2 0.633-0.46l2.835-6.815z"></path>
</symbol>
<symbol id="icon-star" viewBox="0 0 32 32">
<path d="M15.878 0.696l5.78 8.74 10.098 2.796-6.526 8.198 0.461 10.468-9.813-3.673-9.813 3.673 0.461-10.468-6.526-8.198 10.098-2.796 5.78-8.74z"></path>
</symbol>
<symbol id="icon-woice" viewBox="0 0 32 32">
<path stroke-linejoin="round" stroke-linecap="round" stroke-miterlimit="4" stroke-width="2.2857" d="M25.485 7.515c4.686 4.686 4.686 12.284 0 16.971M21.95 11.050c2.734 2.734 2.734 7.166 0 9.899M9 11l6.293-6.293c0.63-0.63 1.707-0.184 1.707 0.707v21.172c0 0.891-1.077 1.337-1.707 0.707l-6.293-6.293h-2.988c-1.172 0-2.271-0.675-2.582-1.806-0.28-1.017-0.43-2.088-0.43-3.194s0.15-2.177 0.43-3.194c0.311-1.13 1.41-1.806 2.582-1.806h2.988z"></path>
</symbol>
</defs>
</svg>
